<?xml version="1.0" encoding="utf-8"?>
<!-- Generator: Adobe Illustrator 21.0.0, SVG Export Plug-In . SVG Version: 6.00 Build 0)  -->
<svg version="1.1" id="图层_1" xmlns="http://www.w3.org/2000/svg" xmlns:xlink="http://www.w3.org/1999/xlink" x="0px" y="0px"
	 viewBox="0 0 22 15" style="enable-background:new 0 0 22 15;" xml:space="preserve">
<style type="text/css">
	.st0{fill:#FFFFFF;}
</style>
<title>icon_display</title>
<desc>Created with Sketch.</desc>
<g id="Clip-2">
</g>
<g>
	<path class="st0" d="M21.9,7.3C20,3.2,15.7,0.5,11,0.5c-4.7,0-9,2.7-10.9,6.8C0,7.5,0,7.8,0.1,8.1C2,12.2,6.3,14.9,11,14.9
		c4.7,0,9-2.7,10.9-6.8C22,7.8,22,7.5,21.9,7.3z M11,13.9c-4.3,0-8.2-2.4-10-6.2c1.8-3.8,5.7-6.2,10-6.2c4.3,0,8.2,2.4,10,6.2
		C19.2,11.5,15.3,13.9,11,13.9z"/>
	<path class="st0" d="M9.7,4.5C8.4,5.1,7.6,6.3,7.6,7.7c0,0.9,0.4,1.8,1,2.4c0.6,0.6,1.5,1,2.4,1h0c1.4,0,2.6-0.8,3.2-2.1
		c0.5-1.3,0.2-2.7-0.7-3.7C12.4,4.3,11,4,9.7,4.5z M13.2,8.6c-0.4,0.9-1.3,1.5-2.2,1.5c-1.3,0-2.4-1.1-2.4-2.4c0-1,0.6-1.9,1.5-2.2
		c0.3-0.1,0.6-0.2,0.9-0.2c0.6,0,1.2,0.2,1.7,0.7C13.4,6.7,13.6,7.7,13.2,8.6z"/>
</g>
</svg>
