<?xml version="1.0" encoding="utf-8"?>
<!-- Generator: Adobe Illustrator 21.0.0, SVG Export Plug-In . SVG Version: 6.00 Build 0)  -->
<svg version="1.1" id="图层_1" xmlns="http://www.w3.org/2000/svg" xmlns:xlink="http://www.w3.org/1999/xlink" x="0px" y="0px"
	 viewBox="0 0 22 15" style="enable-background:new 0 0 22 15;" xml:space="preserve">
<style type="text/css">
	.st0{fill:#FFFFFF;}
</style>
<title>icon_hide</title>
<desc>Created with Sketch.</desc>
<g id="Clip-2">
</g>
<g>
	<path class="st0" d="M5.3,0.6c-0.2-0.2-0.5-0.2-0.7,0c-0.2,0.2-0.2,0.5,0,0.7l0.3,0.3c-2,1.2-3.7,2.9-4.7,5C0,6.9,0,7.2,0.1,7.5
		c1.9,4.1,6.1,6.8,10.8,6.9c1.9,0,3.7-0.4,5.3-1.1l0.5,0.5c0.2,0.2,0.5,0.2,0.7,0s0.2-0.5,0-0.7L5.3,0.6z M8.6,6.6
		C8.7,6.3,8.8,6.1,9,5.9l3.3,3.4c-0.4,0.2-0.8,0.4-1.3,0.4c-0.7,0-1.4-0.3-1.9-0.9C8.6,8.1,8.5,7.3,8.6,6.6z M10.9,13.4
		c-4.3,0-8.2-2.5-9.9-6.3c1-2,2.6-3.7,4.6-4.7l2.7,2.8C8,5.5,7.8,5.9,7.7,6.4c-0.2,1,0,2.1,0.6,2.9c0.6,0.8,1.6,1.3,2.7,1.3h0
		c0.7,0,1.4-0.2,2-0.7l2.5,2.5C14.1,13.1,12.5,13.4,10.9,13.4z"/>
	<path class="st0" d="M12.7,5.5c0.5,0.5,0.7,1.1,0.7,1.7l0.9,0.9c0.3-1.2,0-2.4-0.8-3.3c-0.9-0.9-2.2-1.2-3.3-0.9L11,4.8
		c0,0,0,0,0,0C11.7,4.8,12.3,5,12.7,5.5z"/>
	<path class="st0" d="M21.9,6.9C20,2.8,15.8,0.1,11.1,0C9.7,0,8.3,0.2,7,0.7l0.8,0.8C8.8,1.1,9.9,1,11.1,1c4.3,0,8.2,2.5,9.9,6.3
		c-0.8,1.7-2,3.1-3.5,4.1l0.7,0.7c1.6-1.1,2.9-2.6,3.7-4.4C22,7.5,22,7.2,21.9,6.9z"/>
</g>
</svg>
