<?xml version="1.0" encoding="UTF-8" standalone="no"?>
<svg width="38px" height="38px" viewBox="0 0 38 38" version="1.1" xmlns="http://www.w3.org/2000/svg" xmlns:xlink="http://www.w3.org/1999/xlink">
    <!-- Generator: Sketch 50.2 (55047) - http://www.bohemiancoding.com/sketch -->
    <title>icon_Message_Avatar</title>
    <desc>Created with Sketch.</desc>
    <defs>
        <linearGradient x1="0%" y1="50%" x2="100%" y2="50%" id="linearGradient-1">
            <stop stop-color="#218CF7" offset="0%"></stop>
            <stop stop-color="#2B99FA" offset="47%"></stop>
            <stop stop-color="#3AADFF" offset="100%"></stop>
        </linearGradient>
        <linearGradient x1="50.0881834%" y1="100%" x2="50.0881834%" y2="0%" id="linearGradient-2">
            <stop stop-color="#CCCCCC" offset="0%"></stop>
            <stop stop-color="#D9D9D9" offset="13%"></stop>
            <stop stop-color="#FBFBFB" offset="38%"></stop>
            <stop stop-color="#FFFFFF" offset="40%"></stop>
        </linearGradient>
    </defs>
    <g id="H5登录详情确认订单个人中心" stroke="none" stroke-width="1" fill="none" fill-rule="evenodd">
        <g id="Artboard" transform="translate(-572.000000, -187.000000)" fill-rule="nonzero">
            <g id="icon_Message_Avatar" transform="translate(572.000000, 187.000000)">
                <circle id="Oval" fill="url(#linearGradient-1)" cx="19" cy="19" r="19"></circle>
                <path d="M17.5243333,12.1663333 C17.5243333,12.2296667 17.5243333,12.293 17.5243333,12.3563333 L17.5243333,19.722 L17.5243333,26.9166667 C15.565551,26.9169713 13.9678797,25.3474777 13.9333333,23.389 L13.9333333,18.3223333 L13.9333333,8.55 C15.9206787,8.5639222 17.5243821,10.1789392 17.5243333,12.1663333 Z" id="Shape" fill="url(#linearGradient-2)"></path>
                <path d="M27.8666667,26.9166667 C27.8670349,24.9603031 26.3013287,23.3636208 24.3453333,23.3256667 L17.518,23.3256667 C15.6455946,23.3285363 14.0852372,21.8922356 13.9333333,20.026 L13.9333333,23.3256667 C13.9472555,25.3130121 15.5622725,26.9167154 17.5496667,26.9166667 L27.8666667,26.9166667 Z" id="Shape" fill="#FFFFFF"></path>
                <polygon id="Shape" fill="#FFFFFF" points="17.5306667 13.6103333 17.5243333 13.6103333 17.5306667 13.6103333"></polygon>
            </g>
        </g>
    </g>
</svg>