<?xml version="1.0" encoding="UTF-8"?>
<svg width="20px" height="20px" viewBox="0 0 20 20" version="1.1" xmlns="http://www.w3.org/2000/svg" xmlns:xlink="http://www.w3.org/1999/xlink">
    <!-- Generator: Sketch 49.3 (51167) - http://www.bohemiancoding.com/sketch -->
    <title>icon_Details_comment</title>
    <desc>Created with Sketch.</desc>
    <defs>
        <polygon id="path-1" points="0 0 20 0 20 20 0 20"></polygon>
    </defs>
    <g id="铼米h5" stroke="none" stroke-width="1" fill="none" fill-rule="evenodd">
        <g id="切图" transform="translate(-279.000000, -417.000000)">
            <g id="icon_Details_comment" transform="translate(279.000000, 417.000000)">
                <g id="Group-3">
                    <mask id="mask-2" fill="white">
                        <use xlink:href="#path-1"></use>
                    </mask>
                    <g id="Clip-2"></g>
                    <path d="M18.2173682,2.00004 L1.78255,2.00004 C1.35055,2.00004 0.999959091,2.33964 0.999959091,2.75844 L0.999959091,13.50964 C0.999959091,13.92844 1.35055,14.26804 1.78255,14.26804 L6.68795909,14.26804 L9.77823182,17.83684 C9.86741364,17.94404 9.99791364,18.00004 10.13005,18.00004 C10.2294591,18.00004 10.3292773,17.96844 10.4123227,17.90364 C10.4372773,17.88364 10.4605955,17.86124 10.48105,17.83684 L13.52305,14.26804 L18.2173682,14.26804 C18.6497773,14.26804 18.9999591,13.92844 18.9999591,13.50964 L18.9999591,2.75844 C18.9999591,2.33964 18.6497773,2.00004 18.2173682,2.00004 M17.7726864,3.20004 L17.7726864,13.06804 L13.52305,13.06804 C13.1593682,13.06804 12.8136864,13.22644 12.5805045,13.50004 L10.1251409,16.38044 L7.62477727,13.49284 C7.39159545,13.22364 7.04918636,13.06804 6.68795909,13.06804 L2.22723182,13.06804 L2.22723182,3.20004 L17.7726864,3.20004" id="Fill-1" fill="#393A3F" mask="url(#mask-2)"></path>
                </g>
                <path d="M9.99721818,7.16784 C9.43185455,7.16784 8.97285455,7.61504 8.97080909,8.16784 C8.97080909,8.71864 9.42653636,9.16584 9.98985455,9.16784 L9.99353636,9.16784 C10.5568545,9.16784 11.0142182,8.72264 11.0162636,8.17144 C11.0183091,7.61904 10.5621727,7.16984 9.99721818,7.16784" id="Fill-4" fill="#393A3F"></path>
                <path d="M5.79323636,7.16784 C5.23196364,7.16784 4.7746,7.61104 4.77091818,8.16064 C4.76682727,8.71304 5.22173636,9.16384 5.78628182,9.16784 L5.78996364,9.16784 C6.35491818,9.16784 6.81432727,8.72064 6.81637273,8.16784 C6.81637273,7.61824 6.36269091,7.17184 5.8006,7.16784 L5.79323636,7.16784 Z" id="Fill-6" fill="#393A3F"></path>
                <path d="M14.0253727,7.07604 C13.4636909,7.07604 13.0067364,7.51924 13.0026455,8.06884 C12.9985545,8.62124 13.4534636,9.07204 14.0180091,9.07604 L14.0216909,9.07604 C14.5870545,9.07604 15.0460545,8.62884 15.0481,8.07604 C15.0481,7.52644 14.5948273,7.08004 14.0327364,7.07604 L14.0253727,7.07604 Z" id="Fill-8" fill="#393A3F"></path>
            </g>
        </g>
    </g>
</svg>