<?xml version="1.0" encoding="utf-8"?>
<!-- Generator: Adobe Illustrator 21.0.0, SVG Export Plug-In . SVG Version: 6.00 Build 0)  -->
<svg version="1.1" id="图层_1" xmlns="http://www.w3.org/2000/svg" xmlns:xlink="http://www.w3.org/1999/xlink" x="0px" y="0px"
	 viewBox="0 0 35 67" style="enable-background:new 0 0 35 67;" xml:space="preserve">
<style type="text/css">
	.st0{fill:#FFFFFF;}
</style>
<title>img_direction</title>
<desc>Created with Sketch.</desc>
<g id="Clip-2">
</g>
<path class="st0" d="M34.2,0.4C34.2,0.4,34.2,0.4,34.2,0.4c0-0.1,0-0.2-0.1-0.2c0,0,0,0,0,0c0,0,0,0,0,0c0,0-0.1,0-0.1-0.1
	c0,0,0,0-0.1,0c0,0-0.1,0-0.1,0c0,0-0.1,0-0.1,0c0,0,0,0,0,0h-11c-0.3,0-0.5,0.2-0.5,0.5S22.5,1,22.8,1h9.5
	c-4.1,3.3-17.6,14.7-18.7,25.2c0,0.5-0.1,1-0.1,1.5C-2.9,38,0.2,66.3,0.3,66.6c0,0.3,0.2,0.4,0.5,0.4c0,0,0,0,0.1,0
	c0.3,0,0.5-0.3,0.4-0.6c0-0.3-3.1-27.4,12.4-37.7c0.3,2.2,1.2,4.3,2.8,6.1c2.1,2.4,4.6,2.9,6.8,1.3c2.8-2,4.2-6.7,2.7-9.4
	c-0.8-1.4-3.1-3.4-9.3-0.7c-0.7,0.3-1.4,0.6-2,1c0-0.2,0-0.5,0.1-0.7C15.7,16,29.7,4.3,33.3,1.5v10c0,0.3,0.2,0.5,0.5,0.5
	s0.5-0.2,0.5-0.5L34.2,0.4C34.3,0.5,34.2,0.5,34.2,0.4z M17,27c4.1-1.8,6.9-1.7,8,0.3c1.2,2.2,0,6.3-2.4,8.1
	c-1.2,0.9-3.2,1.4-5.5-1.2c-1.6-1.7-2.4-3.8-2.6-6C15.3,27.7,16.1,27.3,17,27z"/>
</svg>
