<?xml version="1.0" encoding="UTF-8" standalone="no"?>
<svg width="58px" height="58px" viewBox="0 0 58 58" version="1.1" xmlns="http://www.w3.org/2000/svg" xmlns:xlink="http://www.w3.org/1999/xlink">
    <!-- Generator: Sketch 50.2 (55047) - http://www.bohemiancoding.com/sketch -->
    <title>icon_Avatar</title>
    <desc>Created with Sketch.</desc>
    <defs>
        <polygon id="path-1" points="9.66666667e-05 0 58 0 58 57.9999033 9.66666667e-05 57.9999033"></polygon>
    </defs>
    <g id="H5登录详情确认订单个人中心" stroke="none" stroke-width="1" fill="none" fill-rule="evenodd">
        <g id="Artboard" transform="translate(-69.000000, -382.000000)">
            <g id="icon_Avatar" transform="translate(69.000000, 382.000000)">
                <g id="Group-3">
                    <mask id="mask-2" fill="white">
                        <use xlink:href="#path-1"></use>
                    </mask>
                    <g id="Clip-2"></g>
                    <path d="M58.0000967,28.9999033 C58.0000967,45.0156367 45.01583,57.9999033 29.0000967,57.9999033 C12.9843633,57.9999033 9.66666667e-05,45.0156367 9.66666667e-05,28.9999033 C9.66666667e-05,12.98417 12.9843633,-9.66666667e-05 29.0000967,-9.66666667e-05 C45.01583,-9.66666667e-05 58.0000967,12.98417 58.0000967,28.9999033" id="Fill-1" fill="#FFFFFF" mask="url(#mask-2)"></path>
                </g>
                <path d="M22.4089767,23.7271233 C22.4089767,20.0934233 25.36601,17.13639 28.99971,17.13639 C32.6343767,17.13639 35.5904433,20.0934233 35.5904433,23.7271233 C35.5904433,27.36179 32.6343767,30.3178567 28.99971,30.3178567 C25.36601,30.3178567 22.4089767,27.36179 22.4089767,23.7271233 M33.41641,31.7823567 C36.27001,30.21249 38.22751,27.21389 38.22751,23.7271233 C38.22751,18.6308567 34.0959767,14.50029 28.99971,14.50029 C23.9034433,14.50029 19.7728767,18.6308567 19.7728767,23.7271233 C19.7728767,27.21389 21.72941,30.21249 24.5839767,31.7823567 C19.37171,32.5711567 15.2585433,36.75199 14.5944433,42.0029233 C14.49391,42.7936567 15.11161,43.50029 15.90911,43.50029 C16.5596767,43.50029 17.1251767,43.0256567 17.2034767,42.3799233 C17.7583433,37.8182233 21.6549767,34.27249 26.36361,34.27249 L31.63581,34.27249 C36.34541,34.27249 40.2420433,37.8182233 40.7959433,42.3799233 C40.8742433,43.0256567 41.4397433,43.50029 42.09031,43.50029 C42.88781,43.50029 43.5064767,42.7936567 43.4059433,42.0029233 C42.7418433,36.75199 38.62771,32.5711567 33.41641,31.7823567" id="Fill-4" fill="#218CF7" opacity="0.7"></path>
            </g>
        </g>
    </g>
</svg>